HIERARCHY
ROOT Hips
{
  OFFSET 57.8838 95.319 338.509
  CHANNELS 6 Xposition Yposition Zposition Zrotation Xrotation Yrotation
  JOINT LeftUpLeg
  {
    OFFSET 8.64259 1.95398 -2.38835
    CHANNELS 3 Zrotation Xrotation Yrotation
    JOINT LeftLeg
    {
      OFFSET 43.7702 0 0
      CHANNELS 3 Zrotation Xrotation Yrotation
      JOINT LeftFoot
      {
        OFFSET 40.6238 0 0
        CHANNELS 3 Zrotation Xrotation Yrotation
        JOINT LeftToeBase
        {
          OFFSET 12.7242 0 0
          CHANNELS 3 Zrotation Xrotation Yrotation
          End Site
          {
            OFFSET 0 0 0
          }
        }
      }
    }
  }
  JOINT RightUpLeg
  {
    OFFSET -8.2249 1.95398 -2.59336
    CHANNELS 3 Zrotation Xrotation Yrotation
    JOINT RightLeg
    {
      OFFSET 43.5653 0 0
      CHANNELS 3 Zrotation Xrotation Yrotation
      JOINT RightFoot
      {
        OFFSET 40.6238 0 0
        CHANNELS 3 Zrotation Xrotation Yrotation
        JOINT RightToeBase
        {
          OFFSET 12.7242 0 0
          CHANNELS 3 Zrotation Xrotation Yrotation
          End Site
          {
            OFFSET 0 0 0
          }
        }
      }
    }
  }
  JOINT Spine
  {
    OFFSET 0.165834 0.87714 6.61349
    CHANNELS 3 Zrotation Xrotation Yrotation
    JOINT Spine1
    {
      OFFSET 7.38963 1.71661e-005 0
      CHANNELS 3 Zrotation Xrotation Yrotation
      JOINT Spine2
      {
        OFFSET 11.9445 1.14441e-005 0
        CHANNELS 3 Zrotation Xrotation Yrotation
        JOINT Spine3
        {
          OFFSET 14.7254 4.19617e-005 0
          CHANNELS 3 Zrotation Xrotation Yrotation
          JOINT Spine4
          {
            OFFSET 10.9679 0 0
            CHANNELS 3 Zrotation Xrotation Yrotation
            JOINT RightShoulder
            {
              OFFSET 2.46616 -1.6653 3.69651
              CHANNELS 3 Zrotation Xrotation Yrotation
              JOINT RightArm
              {
                OFFSET 13.0012 0 0
                CHANNELS 3 Zrotation Xrotation Yrotation
                JOINT RightForeArm
                {
                  OFFSET 28.7848 1.62311e-005 0
                  CHANNELS 3 Zrotation Xrotation Yrotation
                  JOINT RightHand
                  {
                    OFFSET 26.5688 1.62095e-005 0
                    CHANNELS 3 Zrotation Xrotation Yrotation
                    End Site
                    {
                      OFFSET 0 0 0
                    }
                  }
                }
              }
            }
            JOINT LeftShoulder
            {
              OFFSET 2.38034 -1.29275 -3.7523
              CHANNELS 3 Zrotation Xrotation Yrotation
              JOINT LeftArm
              {
                OFFSET 16.3182 6.07031e-005 0
                CHANNELS 3 Zrotation Xrotation Yrotation
                JOINT LeftForeArm
                {
                  OFFSET 27.0901 0 0
                  CHANNELS 3 Zrotation Xrotation Yrotation
                  JOINT LeftHand
                  {
                    OFFSET 24.5451 1.51738e-005 0
                    CHANNELS 3 Zrotation Xrotation Yrotation
                    End Site
                    {
                      OFFSET 0 0 0
                    }
                  }
                }
              }
            }
            JOINT Neck
            {
              OFFSET 5.0226 -0.0266342 0
              CHANNELS 3 Zrotation Xrotation Yrotation
              JOINT Head
              {
                OFFSET 6.69364 2.86102e-005 0
                CHANNELS 3 Zrotation Xrotation Yrotation
                End Site
                {
                  OFFSET 0 0 0
                }
              }
            }
          }
        }
      }
    }
  }
}
MOTION
Frames:	15
Frame Time:	0.0416667
-6.7447 97.1512 3.38565 114.034 -85.825 114.159 -177.577 2.80235 89.4155 -13.7371 5.13948 1.43387 65.1018 3.62093 0.329064 30.7773 0.791606 0.432037 173.111 2.20554 91.3179 -13.5502 -3.39655 0.101117 65.098 -4.90388 0.571512 30.4532 -2.22598 0.692126 -0.285021 7.2099 -90.2055 12.4532 -0.663978 -0.334077 0.782363 -0.678043 -0.304536 -21.7534 -0.532883 -0.51819 -1.74076 -0.532886 -0.518194 96.7173 -51.4241 -90.3096 28.2239 -8.30344 -9.87812 2.04135 -9.43542 -13.3915 -10.4219 -0.340173 -1.38898 -81.33 -54.0034 92.0453 -39.6501 -24.6855 -22.0051 3.92077 62.1503 0.00985106 1.17892 -0.14524 -11.8465 17.9966 -1.11157 3.35099 -14.5728 -1.94964 -1.15534 
-6.78851 97.1528 3.35552 117.53 -85.9749 117.65 -177.523 2.70482 89.39 -13.8634 4.36035 1.48178 65.4338 3.50283 -0.501936 30.3551 0.584375 1.21361 173.109 2.01157 91.3067 -13.4013 -3.79947 0.116375 64.906 -5.04466 0.144113 30.6371 -2.46573 1.0152 -0.283894 7.2308 -90.194 12.4114 -0.65625 -0.312371 0.740613 -0.669361 -0.28319 -21.7952 -0.532035 -0.495166 -1.78254 -0.532027 -0.49516 96.6412 -51.6263 -90.4043 27.9182 -8.19076 -10.025 2.36523 -8.18243 -13.8372 -11.874 -0.302766 -2.30902 -80.9901 -54.419 92.56 -38.4788 -24.0659 -21.304 2.87998 60.3112 0.00929148 2.95685 -0.304945 -12.6832 18.3138 -0.859003 3.52603 -14.9874 -1.73614 -1.38429 
-6.85021 97.1229 3.25929 119.082 -86.1387 119.421 -177.271 3.0165 89.6958 -14.2877 4.24226 1.38721 65.55 3.59107 -0.396071 30.4018 0.632377 0.574113 173.26 1.94788 91.5982 -13.2207 -3.65271 0.080998 64.9055 -5.15956 0.314257 30.4909 -2.27454 1.1137 -0.256573 7.23758 -90.2194 12.3977 -0.614026 -0.367998 0.726839 -0.629618 -0.340626 -21.8087 -0.475039 -0.535527 -1.79601 -0.475037 -0.535528 96.6729 -51.6017 -90.3586 27.6874 -8.36906 -10.1036 2.31167 -7.96428 -14.1099 -11.4658 -0.311237 -2.10188 -80.5397 -54.941 93.2344 -37.9394 -23.8052 -21.3381 2.54074 60.6003 0.00937457 2.28487 -0.270066 -12.711 17.9201 -0.908998 3.49186 -14.6312 -1.79664 -1.11388 
-6.8679 97.1502 3.19296 119.786 -86.1622 120.049 -177.343 2.99939 89.611 -14.1125 4.421 1.40107 65.2392 3.50824 -0.21299 30.6121 0.707614 0.838148 173.063 2.12712 91.3914 -13.5095 -4.29597 0.313398 64.8273 -5.03207 0.113129 30.5473 -2.34934 0.727998 -0.249351 7.25113 -90.1971 12.3708 -0.589096 -0.326604 0.699911 -0.602894 -0.300357 -21.8356 -0.46371 -0.48855 -1.823 -0.463699 -0.488541 96.5945 -51.862 -90.4503 27.5723 -8.49122 -9.93479 2.39493 -7.90547 -14.041 -11.9536 -0.338592 -1.9559 -80.4398 -55.1515 93.3873 -38.1185 -24.2058 -21.2833 2.67009 60.0927 0.00922981 3.38766 -0.344724 -12.6162 17.801 -1.07068 3.17474 -14.4025 -1.88773 -0.847089 
-6.89118 97.1328 3.05429 122.127 -85.8973 122.389 -177.366 2.48464 89.631 -13.9993 4.61593 1.44926 65.2962 3.58795 -0.231245 30.8712 0.802841 1.13581 173.053 1.7854 91.4472 -13.3098 -3.9325 0.224404 64.9513 -5.36434 0.314175 30.4324 -2.19851 0.656741 -0.250318 7.29076 -90.1886 12.2916 -0.586898 -0.310472 0.620753 -0.599985 -0.284349 -21.9148 -0.466451 -0.472507 -1.90219 -0.466455 -0.472517 96.4939 -52.0956 -90.5778 27.5284 -8.24891 -9.43929 2.27325 -8.23846 -13.8773 -11.074 -0.313366 -1.96812 -80.4271 -55.1864 93.4071 -37.7394 -24.1493 -20.8416 2.36736 59.9915 0.00920155 2.70965 -0.263815 -11.8894 17.8947 -1.16997 2.96562 -14.299 -1.94579 -0.658958 
-6.92221 97.1542 3.01328 121.146 -85.8318 121.37 -177.433 2.86243 89.5632 -14.4058 4.41459 1.51751 65.4387 3.49585 -0.604425 30.521 0.641274 1.49444 173.001 1.89925 91.3983 -13.3962 -3.86734 0.281028 64.879 -5.22511 0.165702 30.502 -2.28981 0.784307 -0.234658 7.30504 -90.189 12.263 -0.555885 -0.314765 0.592129 -0.569213 -0.289999 -21.9434 -0.435594 -0.467288 -1.93071 -0.435595 -0.467286 96.7279 -51.9901 -90.2346 27.5797 -7.9507 -9.4142 2.57062 -8.49252 -13.0007 -11.3595 -0.358356 -1.57259 -80.3564 -55.403 93.5179 -37.6442 -24.4945 -20.7628 2.68996 61.0333 0.00950226 2.52308 -0.264718 -12.3176 17.7608 -1.22366 3.22613 -13.6236 -2.02875 -1.11118 
-6.9481 97.1517 2.97083 121.169 -85.9058 121.302 -177.468 3.05294 89.488 -14.4084 4.37562 1.50268 65.3154 3.47548 -0.480639 30.6295 0.691582 1.38266 172.941 2.0723 91.2731 -13.5466 -4.24802 0.379709 64.7027 -5.09957 -0.232858 30.7509 -2.61464 0.967805 -0.241521 7.31929 -90.1713 12.2346 -0.56115 -0.279209 0.563744 -0.572897 -0.254239 -21.9718 -0.451294 -0.43495 -1.95921 -0.4513 -0.434952 96.6398 -51.9543 -90.372 27.6571 -7.95034 -9.09506 2.35761 -9.28829 -12.764 -10.3812 -0.355032 -1.25109 -80.1293 -55.388 93.8409 -37.5393 -24.9318 -20.5001 2.89614 61.8498 0.00975436 2.12609 -0.230623 -12.1936 17.6844 -1.3329 3.31908 -12.7555 -2.12839 -1.51878 
-6.94487 97.1551 2.97155 123.172 -85.8868 123.3 -177.423 2.64756 89.49 -14.0371 4.25551 1.48038 65.2589 3.4506 -0.407548 30.5072 0.656019 1.02426 172.908 1.9279 91.2891 -13.5885 -3.89632 0.315845 65.0524 -5.31857 0.403712 30.2874 -2.00819 0.751444 -0.226037 7.37946 -90.164 12.1143 -0.526786 -0.269059 0.443441 -0.53812 -0.245619 -22.0921 -0.421572 -0.414941 -2.07944 -0.421574 -0.414955 96.5638 -52.0687 -90.4749 27.5201 -8.00322 -9.1707 2.52917 -9.01473 -12.6557 -10.6022 -0.371477 -1.15306 -80.4235 -55.3184 93.4182 -37.3458 -24.7548 -20.3937 2.91567 61.8195 0.00974474 2.64847 -0.295182 -12.9181 18.1319 -1.33652 3.17519 -12.1806 -2.1381 -1.18185 
-6.99974 97.1575 3.01048 119.298 -85.9887 119.47 -177.568 2.82559 89.5191 -13.8916 4.1769 1.57961 65.1986 3.36927 -0.539035 30.6447 0.708586 1.13388 172.897 2.20566 91.3034 -13.5732 -4.22261 0.4645 64.8359 -5.08573 0.0947096 30.571 -2.38059 0.692684 -0.210406 7.34367 -90.1738 12.1859 -0.5004 -0.291095 0.51499 -0.512729 -0.2688 -22.0204 -0.389786 -0.428033 -2.00778 -0.389782 -0.428034 96.3516 -52.2795 -90.7728 27.0305 -9.82543 -9.18947 2.87127 -9.18055 -12.0462 -10.8381 -0.400265 -0.921628 -81.2662 -56.3366 92.277 -36.0716 -25.047 -21.0591 2.93722 64.2466 0.0116794 3.4449 -0.300053 -12.6179 18.5196 -1.37258 3.23824 -12.4988 -2.23385 -0.809193 
-7.06715 97.1341 3.08505 115.353 -85.8286 115.577 -177.668 3.24768 89.5636 -14.3721 4.16201 1.69645 65.4632 3.34179 -0.85933 30.4575 0.618023 1.41479 172.926 2.30582 91.4368 -13.5416 -4.01554 0.513169 64.8087 -5.20998 -0.25949 30.6158 -2.43921 0.741979 -0.232854 7.30304 -90.1741 12.2671 -0.545269 -0.286332 0.59629 -0.557341 -0.262067 -21.9392 -0.434008 -0.436967 -1.9266 -0.434005 -0.436971 95.1337 -53.1119 -92.4989 25.3958 -13.481 -10.7628 3.91369 -9.90147 -9.5213 -10.3071 -0.285302 -2.06448 -83.4401 -58.9732 89.4471 -35.4716 -27.7989 -26.2025 6.58642 75.2913 0.0413385 2.72402 -0.112284 -12.2197 18.8984 -1.20222 3.39852 -13.0776 -2.0988 -1.05196 
-7.12582 97.1435 3.16417 114.523 -85.4297 114.593 -177.638 3.18269 89.5077 -14.3117 4.67234 1.64357 65.3101 3.43265 -0.667861 30.4774 0.630476 1.32267 172.794 2.13142 91.3198 -13.532 -3.73143 0.525232 64.8777 -5.23624 -0.292889 30.5727 -2.38213 0.868799 -0.260839 7.27729 -90.166 12.3186 -0.597044 -0.263806 0.647766 -0.60807 -0.23728 -21.888 -0.490167 -0.431053 -1.87534 -0.490154 -0.431047 94.0515 -53.6765 -94.03 22.8432 -17.5426 -14.888 5.97339 -11.4905 -5.47799 -10.1219 -0.361557 -1.07563 -85.0261 -60.17 87.4079 -40.473 -30.396 -34.7562 13.4156 85.2329 0.223921 1.68517 0.0829348 -12.1967 19.1824 -1.20876 4.06467 -13.5344 -2.25001 -1.70875 
-7.17452 97.1066 3.1221 120.059 -85.8513 119.938 -177.526 2.87539 89.3974 -14.085 4.24378 1.50254 65.1644 3.38676 -0.442729 30.6982 0.7447 0.80322 172.805 2.2526 91.1695 -14.0336 -4.29187 0.420244 65.1401 -5.4846 -0.247963 30.4194 -2.18141 0.847932 -0.191441 7.21495 -90.1421 12.4435 -0.447922 -0.232466 0.772596 -0.457719 -0.212523 -21.7628 -0.357349 -0.356339 -1.75017 -0.357348 -0.356336 92.9563 -54.2322 -95.556 20.5266 -19.4638 -18.4932 6.72241 -12.5396 -4.37044 -10.9349 -0.457406 -0.330037 -85.5808 -59.9263 86.632 -43.1526 -28.8426 -39.3583 14.1322 87.1446 0.67647 1.29243 0.124041 -12.1412 18.3637 -1.1507 4.33696 -12.9572 -2.26086 -1.64611 
-7.25475 97.1195 3.38635 122.938 -86.328 123.064 -177.278 2.73216 89.7025 -14.1143 4.20278 1.45191 65.3127 3.31613 -0.471233 30.7883 0.75823 1.3812 173.062 2.04721 91.5139 -13.7756 -4.08626 0.263784 65.2632 -5.35599 0.297949 30.3672 -2.11305 0.802484 -0.134146 7.13718 -90.1881 12.5989 -0.3561 -0.334109 0.927971 -0.370465 -0.318118 -21.607 -0.239228 -0.425686 -1.59439 -0.239224 -0.425684 92.4759 -54.2182 -96.2631 18.3314 -21.7029 -21.5195 5.57848 -11.8476 -7.13105 -10.5861 -0.389497 -0.945183 -85.608 -59.924 86.5947 -40.6043 -23.7903 -39.285 9.16533 79.992 0.0749447 3.51724 -0.117772 -12.7618 18.1692 -0.750173 4.63242 -13.325 -1.98057 -1.31671 
-7.23482 97.1085 3.51286 121.084 -86.1106 121.243 -177.309 2.73859 89.7122 -14.2458 4.4198 1.49967 65.2937 3.50538 -0.358597 31.1305 0.906096 1.27221 172.999 1.80776 91.5455 -13.5929 -3.71462 0.268663 65.4563 -5.63883 0.446913 30.1398 -1.81523 0.840169 -0.159734 7.06338 -90.2244 12.7462 -0.424478 -0.398126 1.07531 -0.441588 -0.379066 -21.4596 -0.285209 -0.507294 -1.44699 -0.285203 -0.507298 92.5681 -53.999 -96.1654 16.4747 -23.213 -24.3063 4.12088 -10.2422 -10.7129 -10.8334 -0.343029 -1.56654 -85.3838 -60.043 86.911 -37.0011 -18.4139 -37.6048 2.36487 72.5876 0.0140625 3.75046 -0.298043 -13.6203 17.1791 -0.44116 5.23506 -13.1358 -1.78173 -1.68476 
-7.15982 97.1023 3.64016 120.012 -86.0773 120.182 -177.365 2.70931 89.6444 -14.3504 4.39965 1.54919 65.4036 3.60942 -0.356984 31.1424 0.902066 1.50905 173.064 1.8321 91.567 -13.664 -3.75969 0.193783 65.198 -5.43721 0.153014 30.5879 -2.40173 0.920868 -0.160301 6.9788 -90.223 12.9154 -0.42515 -0.394453 1.24447 -0.442095 -0.375369 -21.2905 -0.286946 -0.503999 -1.27786 -0.28694 -0.50399 92.5302 -54.2138 -96.1844 15.3 -23.698 -25.7925 2.56701 -9.12605 -14.3095 -10.9534 -0.321646 -1.8424 -85.1221 -60.1649 87.2781 -34.6345 -14.8022 -36.0221 -2.19671 66.2455 -0.0266965 3.4977 -0.408834 -13.9633 16.1981 -0.73484 4.76832 -13.2177 -1.91875 -1.40933 
